<svg width="28" height="28" viewBox="0 0 28 28" fill="none" xmlns="http://www.w3.org/2000/svg">
<rect x="0.411765" y="0.411765" width="27.1765" height="27.1765" rx="13.5882" stroke="#3F454E" stroke-width="0.823529"/>
<path d="M14 7.16699C14.2761 7.16699 14.5 7.39085 14.5 7.66699V13.5H20.334C20.6098 13.5004 20.834 13.7241 20.834 14C20.834 14.2759 20.6098 14.4996 20.334 14.5H14.5V20.334C14.4996 20.6098 14.2759 20.834 14 20.834C13.7241 20.834 13.5004 20.6098 13.5 20.334V14.5H7.66699C7.39085 14.5 7.16699 14.2761 7.16699 14C7.16699 13.7239 7.39085 13.5 7.66699 13.5H13.5V7.66699C13.5 7.39085 13.7239 7.16699 14 7.16699Z" fill="#3F454E"/>
</svg>
